<svg xmlns="http://www.w3.org/2000/svg" viewBox="0 0 50 50" width="50" height="50">
	<style>
		tspan { white-space:pre }
		.shp0 { fill: none } 
		.shp1 { fill: none;stroke: #000000;stroke-width: 2 } 
	</style>
	<path id="Layer" class="shp0" d="M0 50L0 0L50 0L50 50L0 50Z" />
	<path id="Layer" class="shp1" d="M35.25 19.78C35.25 19.78 32.93 15.73 32.38 14.67C31.82 13.62 31.68 12.52 32.08 11.86C32.7 10.85 38.32 2.39 38.82 1.68C39.32 0.97 40.75 0.63 42.14 1.61C43.54 2.58 49.06 7.08 49 8.98C48.94 10.89 48.76 18.83 33.79 33.8C18.83 48.76 10.89 48.94 8.98 49C7.07 49.06 2.57 43.54 1.59 42.15C0.62 40.75 0.99 39.32 1.67 38.82C2.45 38.26 10.88 32.7 11.85 32.09C12.51 31.67 13.61 31.82 14.67 32.38C15.73 32.94 19.78 35.26 19.78 35.26C19.78 35.26 22.56 33.62 28.09 28.1C33.62 22.57 35.25 19.78 35.25 19.78Z" />
</svg>