<svg width="123" height="100" viewBox="0 0 123 100" fill="none" xmlns="http://www.w3.org/2000/svg">
<path d="M4.57039 96C4.44372 96 4.36372 95.9383 4.33039 95.815L4.25039 95.2C4.03372 95.4633 3.78539 95.675 3.50539 95.835C3.22872 95.9917 2.91039 96.07 2.55039 96.07C2.26039 96.07 1.99706 96.015 1.76039 95.905C1.52372 95.7917 1.32206 95.6267 1.15539 95.41C0.988724 95.1933 0.860391 94.9233 0.770391 94.6C0.680391 94.2767 0.635391 93.905 0.635391 93.485C0.635391 93.1117 0.685391 92.765 0.785391 92.445C0.885391 92.1217 1.02872 91.8417 1.21539 91.605C1.40539 91.3683 1.63539 91.1833 1.90539 91.05C2.17539 90.9133 2.48206 90.845 2.82539 90.845C3.13539 90.845 3.40039 90.8983 3.62039 91.005C3.84039 91.1083 4.03706 91.255 4.21039 91.445V88.635H5.10039V96H4.57039ZM2.84539 95.35C3.13539 95.35 3.38872 95.2833 3.60539 95.15C3.82539 95.0167 4.02706 94.8283 4.21039 94.585V92.135C4.04706 91.915 3.86706 91.7617 3.67039 91.675C3.47706 91.585 3.26206 91.54 3.02539 91.54C2.55206 91.54 2.18872 91.7083 1.93539 92.045C1.68206 92.3817 1.55539 92.8617 1.55539 93.485C1.55539 93.815 1.58372 94.0983 1.64039 94.335C1.69706 94.5683 1.78039 94.7617 1.89039 94.915C2.00039 95.065 2.13539 95.175 2.29539 95.245C2.45539 95.315 2.63872 95.35 2.84539 95.35ZM8.59633 90.855C8.89966 90.855 9.17966 90.9067 9.43633 91.01C9.693 91.11 9.91466 91.2567 10.1013 91.45C10.288 91.64 10.433 91.8767 10.5363 92.16C10.643 92.44 10.6963 92.76 10.6963 93.12C10.6963 93.26 10.6813 93.3533 10.6513 93.4C10.6213 93.4467 10.5647 93.47 10.4813 93.47H7.11133C7.11799 93.79 7.16133 94.0683 7.24133 94.305C7.32133 94.5417 7.43133 94.74 7.57133 94.9C7.71133 95.0567 7.87799 95.175 8.07133 95.255C8.26466 95.3317 8.48133 95.37 8.72133 95.37C8.94466 95.37 9.13633 95.345 9.29633 95.295C9.45966 95.2417 9.59966 95.185 9.71633 95.125C9.833 95.065 9.92966 95.01 10.0063 94.96C10.0863 94.9067 10.1547 94.88 10.2113 94.88C10.2847 94.88 10.3413 94.9083 10.3813 94.965L10.6313 95.29C10.5213 95.4233 10.3897 95.54 10.2363 95.64C10.083 95.7367 9.918 95.8167 9.74133 95.88C9.56799 95.9433 9.38799 95.99 9.20133 96.02C9.01466 96.0533 8.82966 96.07 8.64633 96.07C8.29633 96.07 7.97299 96.0117 7.67633 95.895C7.38299 95.775 7.12799 95.6017 6.91133 95.375C6.69799 95.145 6.53133 94.8617 6.41133 94.525C6.29133 94.1883 6.23133 93.8017 6.23133 93.365C6.23133 93.0117 6.28466 92.6817 6.39133 92.375C6.50133 92.0683 6.65799 91.8033 6.86133 91.58C7.06466 91.3533 7.31299 91.1767 7.60633 91.05C7.89966 90.92 8.22966 90.855 8.59633 90.855ZM8.61633 91.51C8.18633 91.51 7.84799 91.635 7.60133 91.885C7.35466 92.1317 7.20133 92.475 7.14133 92.915H9.89633C9.89633 92.7083 9.86799 92.52 9.81133 92.35C9.75466 92.1767 9.67133 92.0283 9.56133 91.905C9.45133 91.7783 9.31633 91.6817 9.15633 91.615C8.99966 91.545 8.81966 91.51 8.61633 91.51ZM15.3705 91.315C15.3705 91.3783 15.3588 91.44 15.3355 91.5C15.3121 91.5567 15.2821 91.6083 15.2455 91.655L12.5055 95.305H15.2705V96H11.4555V95.63C11.4555 95.5867 11.4655 95.5367 11.4855 95.48C11.5088 95.42 11.5405 95.3633 11.5805 95.31L14.3355 91.635H11.6105V90.935H15.3705V91.315Z" fill="#8C91A5"/>
<path d="M24.138 90.935V96.375C24.138 96.5783 24.1113 96.7667 24.058 96.94C24.0046 97.1167 23.9196 97.27 23.803 97.4C23.6896 97.53 23.5413 97.6317 23.358 97.705C23.178 97.7817 22.9613 97.82 22.708 97.82C22.598 97.82 22.498 97.8117 22.408 97.795C22.318 97.7783 22.228 97.7533 22.138 97.72L22.178 97.24C22.1846 97.1967 22.1996 97.1683 22.223 97.155C22.2463 97.145 22.283 97.14 22.333 97.14C22.3596 97.14 22.388 97.14 22.418 97.14C22.448 97.1433 22.4846 97.145 22.528 97.145C22.788 97.145 22.973 97.0833 23.083 96.96C23.193 96.84 23.248 96.645 23.248 96.375V90.935H24.138ZM24.338 89.345C24.338 89.4317 24.3196 89.5133 24.283 89.59C24.2496 89.6633 24.203 89.73 24.143 89.79C24.0863 89.8467 24.0196 89.8917 23.943 89.925C23.8663 89.9583 23.7846 89.975 23.698 89.975C23.6113 89.975 23.5296 89.9583 23.453 89.925C23.3796 89.8917 23.313 89.8467 23.253 89.79C23.1963 89.73 23.1513 89.6633 23.118 89.59C23.0846 89.5133 23.068 89.4317 23.068 89.345C23.068 89.2583 23.0846 89.1767 23.118 89.1C23.1513 89.02 23.1963 88.9517 23.253 88.895C23.313 88.835 23.3796 88.7883 23.453 88.755C23.5296 88.7217 23.6113 88.705 23.698 88.705C23.7846 88.705 23.8663 88.7217 23.943 88.755C24.0196 88.7883 24.0863 88.835 24.143 88.895C24.203 88.9517 24.2496 89.02 24.283 89.1C24.3196 89.1767 24.338 89.2583 24.338 89.345ZM29.407 96H29.012C28.9254 96 28.8554 95.9867 28.802 95.96C28.7487 95.9333 28.7137 95.8767 28.697 95.79L28.597 95.32C28.4637 95.44 28.3337 95.5483 28.207 95.645C28.0804 95.7383 27.947 95.8183 27.807 95.885C27.667 95.9483 27.517 95.9967 27.357 96.03C27.2004 96.0633 27.0254 96.08 26.832 96.08C26.6354 96.08 26.4504 96.0533 26.277 96C26.107 95.9433 25.9587 95.86 25.832 95.75C25.7054 95.64 25.6037 95.5017 25.527 95.335C25.4537 95.165 25.417 94.965 25.417 94.735C25.417 94.535 25.472 94.3433 25.582 94.16C25.692 93.9733 25.8687 93.8083 26.112 93.665C26.3587 93.5217 26.6804 93.405 27.077 93.315C27.4737 93.2217 27.9587 93.1683 28.532 93.155V92.76C28.532 92.3667 28.447 92.07 28.277 91.87C28.1104 91.6667 27.862 91.565 27.532 91.565C27.3154 91.565 27.132 91.5933 26.982 91.65C26.8354 91.7033 26.707 91.765 26.597 91.835C26.4904 91.9017 26.397 91.9633 26.317 92.02C26.2404 92.0733 26.1637 92.1 26.087 92.1C26.027 92.1 25.9737 92.085 25.927 92.055C25.8837 92.0217 25.8487 91.9817 25.822 91.935L25.662 91.65C25.942 91.38 26.2437 91.1783 26.567 91.045C26.8904 90.9117 27.2487 90.845 27.642 90.845C27.9254 90.845 28.177 90.8917 28.397 90.985C28.617 91.0783 28.802 91.2083 28.952 91.375C29.102 91.5417 29.2154 91.7433 29.292 91.98C29.3687 92.2167 29.407 92.4767 29.407 92.76V96ZM27.097 95.455C27.2537 95.455 27.397 95.44 27.527 95.41C27.657 95.3767 27.7787 95.3317 27.892 95.275C28.0087 95.215 28.1187 95.1433 28.222 95.06C28.3287 94.9767 28.432 94.8817 28.532 94.775V93.72C28.122 93.7333 27.7737 93.7667 27.487 93.82C27.2004 93.87 26.967 93.9367 26.787 94.02C26.607 94.1033 26.4754 94.2017 26.392 94.315C26.312 94.4283 26.272 94.555 26.272 94.695C26.272 94.8283 26.2937 94.9433 26.337 95.04C26.3804 95.1367 26.4387 95.2167 26.512 95.28C26.5854 95.34 26.672 95.385 26.772 95.415C26.872 95.4417 26.9804 95.455 27.097 95.455ZM30.7554 96V90.935H31.2854C31.4121 90.935 31.4921 90.9967 31.5254 91.12L31.5954 91.67C31.8154 91.4267 32.0604 91.23 32.3304 91.08C32.6037 90.93 32.9187 90.855 33.2754 90.855C33.5521 90.855 33.7954 90.9017 34.0054 90.995C34.2187 91.085 34.3954 91.215 34.5354 91.385C34.6787 91.5517 34.7871 91.7533 34.8604 91.99C34.9337 92.2267 34.9704 92.4883 34.9704 92.775V96H34.0804V92.775C34.0804 92.3917 33.9921 92.095 33.8154 91.885C33.6421 91.6717 33.3754 91.565 33.0154 91.565C32.7521 91.565 32.5054 91.6283 32.2754 91.755C32.0487 91.8817 31.8387 92.0533 31.6454 92.27V96H30.7554Z" fill="#8C91A5"/>
<path d="M43.1282 96V91.695L42.5682 91.63C42.4982 91.6133 42.4399 91.5883 42.3932 91.555C42.3499 91.5183 42.3282 91.4667 42.3282 91.4V91.035H43.1282V90.545C43.1282 90.255 43.1682 89.9983 43.2482 89.775C43.3316 89.5483 43.4482 89.3583 43.5982 89.205C43.7516 89.0483 43.9349 88.93 44.1482 88.85C44.3616 88.77 44.6016 88.73 44.8682 88.73C45.0949 88.73 45.3049 88.7633 45.4982 88.83L45.4782 89.275C45.4749 89.3417 45.4466 89.3817 45.3932 89.395C45.3399 89.4083 45.2649 89.415 45.1682 89.415H45.0132C44.8599 89.415 44.7199 89.435 44.5932 89.475C44.4699 89.515 44.3632 89.58 44.2732 89.67C44.1832 89.76 44.1132 89.8783 44.0632 90.025C44.0166 90.1717 43.9932 90.3533 43.9932 90.57V91.035H45.4582V91.68H44.0232V96H43.1282ZM48.3024 90.855C48.6057 90.855 48.8857 90.9067 49.1424 91.01C49.399 91.11 49.6207 91.2567 49.8074 91.45C49.994 91.64 50.139 91.8767 50.2424 92.16C50.349 92.44 50.4024 92.76 50.4024 93.12C50.4024 93.26 50.3874 93.3533 50.3574 93.4C50.3274 93.4467 50.2707 93.47 50.1874 93.47H46.8174C46.824 93.79 46.8674 94.0683 46.9474 94.305C47.0274 94.5417 47.1374 94.74 47.2774 94.9C47.4174 95.0567 47.584 95.175 47.7774 95.255C47.9707 95.3317 48.1874 95.37 48.4274 95.37C48.6507 95.37 48.8424 95.345 49.0024 95.295C49.1657 95.2417 49.3057 95.185 49.4224 95.125C49.539 95.065 49.6357 95.01 49.7124 94.96C49.7924 94.9067 49.8607 94.88 49.9174 94.88C49.9907 94.88 50.0474 94.9083 50.0874 94.965L50.3374 95.29C50.2274 95.4233 50.0957 95.54 49.9424 95.64C49.789 95.7367 49.624 95.8167 49.4474 95.88C49.274 95.9433 49.094 95.99 48.9074 96.02C48.7207 96.0533 48.5357 96.07 48.3524 96.07C48.0024 96.07 47.679 96.0117 47.3824 95.895C47.089 95.775 46.834 95.6017 46.6174 95.375C46.404 95.145 46.2374 94.8617 46.1174 94.525C45.9974 94.1883 45.9374 93.8017 45.9374 93.365C45.9374 93.0117 45.9907 92.6817 46.0974 92.375C46.2074 92.0683 46.364 91.8033 46.5674 91.58C46.7707 91.3533 47.019 91.1767 47.3124 91.05C47.6057 90.92 47.9357 90.855 48.3024 90.855ZM48.3224 91.51C47.8924 91.51 47.554 91.635 47.3074 91.885C47.0607 92.1317 46.9074 92.475 46.8474 92.915H49.6024C49.6024 92.7083 49.574 92.52 49.5174 92.35C49.4607 92.1767 49.3774 92.0283 49.2674 91.905C49.1574 91.7783 49.0224 91.6817 48.8624 91.615C48.7057 91.545 48.5257 91.51 48.3224 91.51ZM50.7746 90.935H51.5046C51.5746 90.935 51.6329 90.9533 51.6796 90.99C51.7262 91.0267 51.7596 91.07 51.7796 91.12L53.0646 94.38C53.1112 94.5 53.1479 94.62 53.1746 94.74C53.2012 94.86 53.2262 94.9783 53.2496 95.095C53.2762 94.9783 53.3046 94.86 53.3346 94.74C53.3646 94.62 53.4029 94.5 53.4496 94.38L54.7496 91.12C54.7696 91.0667 54.8012 91.0233 54.8446 90.99C54.8912 90.9533 54.9479 90.935 55.0146 90.935H55.7096L53.6446 96H52.8396L50.7746 90.935Z" fill="#8C91A5"/>
<path d="M63.0728 96V90.935H63.6028C63.7294 90.935 63.8094 90.9967 63.8428 91.12L63.9078 91.64C64.0944 91.41 64.3028 91.2217 64.5328 91.075C64.7661 90.9283 65.0361 90.855 65.3428 90.855C65.6861 90.855 65.9628 90.95 66.1728 91.14C66.3861 91.33 66.5394 91.5867 66.6328 91.91C66.7028 91.7267 66.7944 91.5683 66.9078 91.435C67.0244 91.3017 67.1544 91.1917 67.2978 91.105C67.4411 91.0183 67.5928 90.955 67.7528 90.915C67.9161 90.875 68.0811 90.855 68.2478 90.855C68.5144 90.855 68.7511 90.8983 68.9578 90.985C69.1678 91.0683 69.3444 91.1917 69.4878 91.355C69.6344 91.5183 69.7461 91.72 69.8228 91.96C69.8994 92.1967 69.9378 92.4683 69.9378 92.775V96H69.0478V92.775C69.0478 92.3783 68.9611 92.0783 68.7878 91.875C68.6144 91.6683 68.3628 91.565 68.0328 91.565C67.8861 91.565 67.7461 91.5917 67.6128 91.645C67.4828 91.695 67.3678 91.77 67.2678 91.87C67.1678 91.97 67.0878 92.0967 67.0278 92.25C66.9711 92.4 66.9428 92.575 66.9428 92.775V96H66.0528V92.775C66.0528 92.3683 65.9711 92.065 65.8078 91.865C65.6444 91.665 65.4061 91.565 65.0928 91.565C64.8728 91.565 64.6678 91.625 64.4778 91.745C64.2911 91.8617 64.1194 92.0217 63.9628 92.225V96H63.0728ZM75.0057 96H74.6107C74.524 96 74.454 95.9867 74.4007 95.96C74.3473 95.9333 74.3123 95.8767 74.2957 95.79L74.1957 95.32C74.0623 95.44 73.9323 95.5483 73.8057 95.645C73.679 95.7383 73.5457 95.8183 73.4057 95.885C73.2657 95.9483 73.1157 95.9967 72.9557 96.03C72.799 96.0633 72.624 96.08 72.4307 96.08C72.234 96.08 72.049 96.0533 71.8757 96C71.7057 95.9433 71.5573 95.86 71.4307 95.75C71.304 95.64 71.2023 95.5017 71.1257 95.335C71.0523 95.165 71.0157 94.965 71.0157 94.735C71.0157 94.535 71.0707 94.3433 71.1807 94.16C71.2907 93.9733 71.4673 93.8083 71.7107 93.665C71.9573 93.5217 72.279 93.405 72.6757 93.315C73.0723 93.2217 73.5573 93.1683 74.1307 93.155V92.76C74.1307 92.3667 74.0457 92.07 73.8757 91.87C73.709 91.6667 73.4607 91.565 73.1307 91.565C72.914 91.565 72.7307 91.5933 72.5807 91.65C72.434 91.7033 72.3057 91.765 72.1957 91.835C72.089 91.9017 71.9957 91.9633 71.9157 92.02C71.839 92.0733 71.7623 92.1 71.6857 92.1C71.6257 92.1 71.5723 92.085 71.5257 92.055C71.4823 92.0217 71.4473 91.9817 71.4207 91.935L71.2607 91.65C71.5407 91.38 71.8423 91.1783 72.1657 91.045C72.489 90.9117 72.8473 90.845 73.2407 90.845C73.524 90.845 73.7757 90.8917 73.9957 90.985C74.2157 91.0783 74.4007 91.2083 74.5507 91.375C74.7007 91.5417 74.814 91.7433 74.8907 91.98C74.9673 92.2167 75.0057 92.4767 75.0057 92.76V96ZM72.6957 95.455C72.8523 95.455 72.9957 95.44 73.1257 95.41C73.2557 95.3767 73.3773 95.3317 73.4907 95.275C73.6073 95.215 73.7173 95.1433 73.8207 95.06C73.9273 94.9767 74.0307 94.8817 74.1307 94.775V93.72C73.7207 93.7333 73.3723 93.7667 73.0857 93.82C72.799 93.87 72.5657 93.9367 72.3857 94.02C72.2057 94.1033 72.074 94.2017 71.9907 94.315C71.9107 94.4283 71.8707 94.555 71.8707 94.695C71.8707 94.8283 71.8923 94.9433 71.9357 95.04C71.979 95.1367 72.0373 95.2167 72.1107 95.28C72.184 95.34 72.2707 95.385 72.3707 95.415C72.4707 95.4417 72.579 95.455 72.6957 95.455ZM76.354 96V90.935H76.864C76.9607 90.935 77.0274 90.9533 77.064 90.99C77.1007 91.0267 77.1257 91.09 77.139 91.18L77.199 91.97C77.3724 91.6167 77.5857 91.3417 77.839 91.145C78.0957 90.945 78.3957 90.845 78.739 90.845C78.879 90.845 79.0057 90.8617 79.119 90.895C79.2324 90.925 79.3374 90.9683 79.434 91.025L79.319 91.69C79.2957 91.7733 79.244 91.815 79.164 91.815C79.1174 91.815 79.0457 91.8 78.949 91.77C78.8524 91.7367 78.7174 91.72 78.544 91.72C78.234 91.72 77.974 91.81 77.764 91.99C77.5574 92.17 77.384 92.4317 77.244 92.775V96H76.354Z" fill="#8C91A5"/>
<path d="M90.6063 96H90.2113C90.1246 96 90.0546 95.9867 90.0013 95.96C89.9479 95.9333 89.9129 95.8767 89.8963 95.79L89.7963 95.32C89.6629 95.44 89.5329 95.5483 89.4063 95.645C89.2796 95.7383 89.1463 95.8183 89.0063 95.885C88.8663 95.9483 88.7163 95.9967 88.5563 96.03C88.3996 96.0633 88.2246 96.08 88.0313 96.08C87.8346 96.08 87.6496 96.0533 87.4762 96C87.3063 95.9433 87.1579 95.86 87.0313 95.75C86.9046 95.64 86.8029 95.5017 86.7263 95.335C86.6529 95.165 86.6163 94.965 86.6163 94.735C86.6163 94.535 86.6713 94.3433 86.7812 94.16C86.8913 93.9733 87.0679 93.8083 87.3113 93.665C87.5579 93.5217 87.8796 93.405 88.2763 93.315C88.6729 93.2217 89.1579 93.1683 89.7313 93.155V92.76C89.7313 92.3667 89.6463 92.07 89.4763 91.87C89.3096 91.6667 89.0613 91.565 88.7313 91.565C88.5146 91.565 88.3313 91.5933 88.1813 91.65C88.0346 91.7033 87.9063 91.765 87.7963 91.835C87.6896 91.9017 87.5963 91.9633 87.5163 92.02C87.4396 92.0733 87.3629 92.1 87.2863 92.1C87.2263 92.1 87.1729 92.085 87.1263 92.055C87.0829 92.0217 87.0479 91.9817 87.0213 91.935L86.8613 91.65C87.1413 91.38 87.4429 91.1783 87.7663 91.045C88.0896 90.9117 88.4479 90.845 88.8413 90.845C89.1246 90.845 89.3763 90.8917 89.5963 90.985C89.8163 91.0783 90.0013 91.2083 90.1513 91.375C90.3013 91.5417 90.4146 91.7433 90.4913 91.98C90.5679 92.2167 90.6063 92.4767 90.6063 92.76V96ZM88.2963 95.455C88.4529 95.455 88.5963 95.44 88.7262 95.41C88.8563 95.3767 88.9779 95.3317 89.0913 95.275C89.2079 95.215 89.3179 95.1433 89.4213 95.06C89.5279 94.9767 89.6313 94.8817 89.7313 94.775V93.72C89.3213 93.7333 88.9729 93.7667 88.6863 93.82C88.3996 93.87 88.1663 93.9367 87.9863 94.02C87.8063 94.1033 87.6746 94.2017 87.5913 94.315C87.5113 94.4283 87.4713 94.555 87.4713 94.695C87.4713 94.8283 87.4929 94.9433 87.5363 95.04C87.5796 95.1367 87.6379 95.2167 87.7113 95.28C87.7846 95.34 87.8713 95.385 87.9713 95.415C88.0713 95.4417 88.1796 95.455 88.2963 95.455ZM91.9846 96V88.635H92.8796V91.665C93.0896 91.4217 93.3296 91.2267 93.5996 91.08C93.8729 90.93 94.1846 90.855 94.5346 90.855C94.8279 90.855 95.0929 90.91 95.3296 91.02C95.5663 91.13 95.7679 91.295 95.9346 91.515C96.1013 91.7317 96.2296 92.0017 96.3196 92.325C96.4096 92.645 96.4546 93.015 96.4546 93.435C96.4546 93.8083 96.4046 94.1567 96.3046 94.48C96.2046 94.8 96.0596 95.0783 95.8696 95.315C95.6829 95.5483 95.4529 95.7333 95.1796 95.87C94.9096 96.0033 94.6046 96.07 94.2646 96.07C93.9379 96.07 93.6596 96.0067 93.4296 95.88C93.2029 95.7533 93.0046 95.5767 92.8346 95.35L92.7896 95.81C92.7629 95.9367 92.6863 96 92.5596 96H91.9846ZM94.2446 91.565C93.9546 91.565 93.6996 91.6317 93.4796 91.765C93.2629 91.8983 93.0629 92.0867 92.8796 92.33V94.78C93.0396 95 93.2163 95.155 93.4096 95.245C93.6063 95.335 93.8246 95.38 94.0646 95.38C94.5379 95.38 94.9013 95.2117 95.1546 94.875C95.4079 94.5383 95.5346 94.0583 95.5346 93.435C95.5346 93.105 95.5046 92.8217 95.4446 92.585C95.3879 92.3483 95.3046 92.155 95.1946 92.005C95.0846 91.8517 94.9496 91.74 94.7896 91.67C94.6296 91.6 94.4479 91.565 94.2446 91.565ZM97.5405 96V90.935H98.0505C98.1472 90.935 98.2139 90.9533 98.2505 90.99C98.2872 91.0267 98.3122 91.09 98.3255 91.18L98.3855 91.97C98.5589 91.6167 98.7722 91.3417 99.0255 91.145C99.2822 90.945 99.5822 90.845 99.9255 90.845C100.066 90.845 100.192 90.8617 100.306 90.895C100.419 90.925 100.524 90.9683 100.621 91.025L100.506 91.69C100.482 91.7733 100.431 91.815 100.351 91.815C100.304 91.815 100.232 91.8 100.136 91.77C100.039 91.7367 99.9039 91.72 99.7305 91.72C99.4205 91.72 99.1605 91.81 98.9505 91.99C98.7439 92.17 98.5705 92.4317 98.4305 92.775V96H97.5405Z" fill="#8C91A5"/>
<path d="M107.81 96V90.935H108.34C108.467 90.935 108.547 90.9967 108.58 91.12L108.645 91.64C108.832 91.41 109.04 91.2217 109.27 91.075C109.503 90.9283 109.773 90.855 110.08 90.855C110.423 90.855 110.7 90.95 110.91 91.14C111.123 91.33 111.277 91.5867 111.37 91.91C111.44 91.7267 111.532 91.5683 111.645 91.435C111.762 91.3017 111.892 91.1917 112.035 91.105C112.178 91.0183 112.33 90.955 112.49 90.915C112.653 90.875 112.818 90.855 112.985 90.855C113.252 90.855 113.488 90.8983 113.695 90.985C113.905 91.0683 114.082 91.1917 114.225 91.355C114.372 91.5183 114.483 91.72 114.56 91.96C114.637 92.1967 114.675 92.4683 114.675 92.775V96H113.785V92.775C113.785 92.3783 113.698 92.0783 113.525 91.875C113.352 91.6683 113.1 91.565 112.77 91.565C112.623 91.565 112.483 91.5917 112.35 91.645C112.22 91.695 112.105 91.77 112.005 91.87C111.905 91.97 111.825 92.0967 111.765 92.25C111.708 92.4 111.68 92.575 111.68 92.775V96H110.79V92.775C110.79 92.3683 110.708 92.065 110.545 91.865C110.382 91.665 110.143 91.565 109.83 91.565C109.61 91.565 109.405 91.625 109.215 91.745C109.028 91.8617 108.857 92.0217 108.7 92.225V96H107.81ZM119.743 96H119.348C119.261 96 119.191 95.9867 119.138 95.96C119.085 95.9333 119.05 95.8767 119.033 95.79L118.933 95.32C118.8 95.44 118.67 95.5483 118.543 95.645C118.416 95.7383 118.283 95.8183 118.143 95.885C118.003 95.9483 117.853 95.9967 117.693 96.03C117.536 96.0633 117.361 96.08 117.168 96.08C116.971 96.08 116.786 96.0533 116.613 96C116.443 95.9433 116.295 95.86 116.168 95.75C116.041 95.64 115.94 95.5017 115.863 95.335C115.79 95.165 115.753 94.965 115.753 94.735C115.753 94.535 115.808 94.3433 115.918 94.16C116.028 93.9733 116.205 93.8083 116.448 93.665C116.695 93.5217 117.016 93.405 117.413 93.315C117.81 93.2217 118.295 93.1683 118.868 93.155V92.76C118.868 92.3667 118.783 92.07 118.613 91.87C118.446 91.6667 118.198 91.565 117.868 91.565C117.651 91.565 117.468 91.5933 117.318 91.65C117.171 91.7033 117.043 91.765 116.933 91.835C116.826 91.9017 116.733 91.9633 116.653 92.02C116.576 92.0733 116.5 92.1 116.423 92.1C116.363 92.1 116.31 92.085 116.263 92.055C116.22 92.0217 116.185 91.9817 116.158 91.935L115.998 91.65C116.278 91.38 116.58 91.1783 116.903 91.045C117.226 90.9117 117.585 90.845 117.978 90.845C118.261 90.845 118.513 90.8917 118.733 90.985C118.953 91.0783 119.138 91.2083 119.288 91.375C119.438 91.5417 119.551 91.7433 119.628 91.98C119.705 92.2167 119.743 92.4767 119.743 92.76V96ZM117.433 95.455C117.59 95.455 117.733 95.44 117.863 95.41C117.993 95.3767 118.115 95.3317 118.228 95.275C118.345 95.215 118.455 95.1433 118.558 95.06C118.665 94.9767 118.768 94.8817 118.868 94.775V93.72C118.458 93.7333 118.11 93.7667 117.823 93.82C117.536 93.87 117.303 93.9367 117.123 94.02C116.943 94.1033 116.811 94.2017 116.728 94.315C116.648 94.4283 116.608 94.555 116.608 94.695C116.608 94.8283 116.63 94.9433 116.673 95.04C116.716 95.1367 116.775 95.2167 116.848 95.28C116.921 95.34 117.008 95.385 117.108 95.415C117.208 95.4417 117.316 95.455 117.433 95.455ZM122.081 90.935V96H121.191V90.935H122.081ZM122.281 89.345C122.281 89.4317 122.263 89.5133 122.226 89.59C122.193 89.6633 122.146 89.73 122.086 89.79C122.03 89.8467 121.963 89.8917 121.886 89.925C121.81 89.9583 121.728 89.975 121.641 89.975C121.555 89.975 121.473 89.9583 121.396 89.925C121.323 89.8917 121.256 89.8467 121.196 89.79C121.14 89.73 121.095 89.6633 121.061 89.59C121.028 89.5133 121.011 89.4317 121.011 89.345C121.011 89.2583 121.028 89.1767 121.061 89.1C121.095 89.02 121.14 88.9517 121.196 88.895C121.256 88.835 121.323 88.7883 121.396 88.755C121.473 88.7217 121.555 88.705 121.641 88.705C121.728 88.705 121.81 88.7217 121.886 88.755C121.963 88.7883 122.03 88.835 122.086 88.895C122.146 88.9517 122.193 89.02 122.226 89.1C122.263 89.1767 122.281 89.2583 122.281 89.345Z" fill="#8C91A5"/>
<path d="M6 16C6 14.8954 6.89543 14 8 14C9.10457 14 10 14.8954 10 16V40H6V16Z" fill="#20C05C"/>
<path d="M10 64C10 65.1046 9.10457 66 8 66C6.89543 66 6 65.1046 6 64L6.00001 40L10 40L10 64Z" fill="#FD4F48"/>
<path d="M27 14C27 12.8954 27.8954 12 29 12C30.1046 12 31 12.8954 31 14V40H27V14Z" fill="#20C05C"/>
<path d="M31 66C31 67.1046 30.1046 68 29 68C27.8954 68 27 67.1046 27 66L27 40L31 40L31 66Z" fill="#FD4F48"/>
<path d="M48 14C48 12.8954 48.8954 12 50 12C51.1046 12 52 12.8954 52 14V40H48V14Z" fill="#20C05C"/>
<path d="M52 66C52 67.1046 51.1046 68 50 68C48.8954 68 48 67.1046 48 66L48 40L52 40L52 66Z" fill="#FD4F48"/>
<path d="M69 11C69 9.89543 69.8954 9 71 9C72.1046 9 73 9.89543 73 11V40H69V11Z" fill="#20C05C"/>
<path d="M73 69C73 70.1046 72.1046 71 71 71C69.8954 71 69 70.1046 69 69L69 40L73 40L73 69Z" fill="#FD4F48"/>
<path d="M90 11C90 9.89543 90.8954 9 92 9C93.1046 9 94 9.89543 94 11V40H90V11Z" fill="#20C05C"/>
<path d="M94 69C94 70.1046 93.1046 71 92 71C90.8954 71 90 70.1046 90 69L90 40L94 40L94 69Z" fill="#FD4F48"/>
<path d="M111 2C111 0.895431 111.895 0 113 0C114.105 0 115 0.895431 115 2V40H111V2Z" fill="#20C05C"/>
<path d="M115 78C115 79.1046 114.105 80 113 80C111.895 80 111 79.1046 111 78L111 40L115 40L115 78Z" fill="#FD4F48"/>
</svg>
