<svg width="12" height="12" viewBox="0 0 12 12" fill="none" xmlns="http://www.w3.org/2000/svg">
<path d="M7.06 7.06001C6.92268 7.20739 6.75707 7.32559 6.57308 7.40757C6.38908 7.48956 6.19045 7.53364 5.98905 7.5372C5.78764 7.54075 5.58758 7.5037 5.4008 7.42826C5.21403 7.35282 5.04436 7.24053 4.90192 7.09809C4.75949 6.95565 4.6472 6.78598 4.57175 6.59921C4.49631 6.41243 4.45926 6.21237 4.46282 6.01097C4.46637 5.80956 4.51045 5.61093 4.59244 5.42694C4.67442 5.24294 4.79263 5.07734 4.94 4.94001M8.97 8.97001C8.1153 9.62151 7.07455 9.98244 6 10C2.5 10 0.5 6.00001 0.5 6.00001C1.12194 4.84096 1.98457 3.82832 3.03 3.03001L8.97 8.97001ZM4.95 2.12001C5.29417 2.03945 5.64653 1.99918 6 2.00001C9.5 2.00001 11.5 6.00001 11.5 6.00001C11.1965 6.56782 10.8345 7.10238 10.42 7.59501L4.95 2.12001Z" stroke="#8C91A5" stroke-linecap="round" stroke-linejoin="round"/>
<path d="M0.5 0.5L11.5 11.5" stroke="#8C91A5" stroke-linecap="round" stroke-linejoin="round"/>
</svg>
