<svg width="32" height="32" viewBox="0 0 32 32" fill="none" xmlns="http://www.w3.org/2000/svg">
<path d="M12 29.3334C12.7364 29.3334 13.3334 28.7364 13.3334 28C13.3334 27.2636 12.7364 26.6667 12 26.6667C11.2636 26.6667 10.6667 27.2636 10.6667 28C10.6667 28.7364 11.2636 29.3334 12 29.3334Z" stroke="#FB6910" stroke-width="2.66667" stroke-linecap="round" stroke-linejoin="round"/>
<path d="M26.6666 29.3334C27.403 29.3334 28 28.7364 28 28C28 27.2636 27.403 26.6667 26.6666 26.6667C25.9303 26.6667 25.3333 27.2636 25.3333 28C25.3333 28.7364 25.9303 29.3334 26.6666 29.3334Z" stroke="#FB6910" stroke-width="2.66667" stroke-linecap="round" stroke-linejoin="round"/>
<path d="M1.33331 1.33331H6.66665L10.24 19.1866C10.3619 19.8005 10.6959 20.3519 11.1834 20.7444C11.6709 21.1368 12.2809 21.3453 12.9066 21.3333H25.8666C26.4924 21.3453 27.1024 21.1368 27.5899 20.7444C28.0774 20.3519 28.4114 19.8005 28.5333 19.1866L30.6666 7.99998H7.99998" stroke="#FB6910" stroke-width="2.66667" stroke-linecap="round" stroke-linejoin="round"/>
</svg>
