<svg width="12" height="20" viewBox="0 0 12 20" fill="none" xmlns="http://www.w3.org/2000/svg">
<path d="M2.59375 20H9.625C10.7882 20 11.7344 19.0538 11.7344 17.8906V2.32812C11.7344 1.16497 10.7882 0.21875 9.625 0.21875H2.59375C1.43059 0.21875 0.484375 1.16497 0.484375 2.32812V17.8906C0.484375 19.0538 1.43059 20 2.59375 20ZM4 3.03125C4.38831 3.03125 4.70312 3.34606 4.70312 3.73438C4.70312 4.12269 4.38831 4.4375 4 4.4375C3.61169 4.4375 3.29688 4.12269 3.29688 3.73438C3.29688 3.34606 3.61169 3.03125 4 3.03125ZM4 5.84375C4.38831 5.84375 4.70312 6.15856 4.70312 6.54688C4.70312 6.93519 4.38831 7.25 4 7.25C3.61169 7.25 3.29688 6.93519 3.29688 6.54688C3.29688 6.15856 3.61169 5.84375 4 5.84375Z" fill="#FB6910"/>
</svg>
