<svg width="24" height="22" viewBox="0 0 24 22" fill="none" xmlns="http://www.w3.org/2000/svg">
<path d="M22.191 8.2493L20.5078 2.63867C20.124 1.35913 18.969 0.5 17.6338 0.5H6.36621C5.031 0.5 3.87597 1.35913 3.49218 2.63867L1.80898 8.2493C0.746149 8.71118 0 9.76889 0 11V17C0 17.8284 0.671631 18.5 1.5 18.5H1.50009L1.5 19.9999C1.5 20.8284 2.17154 21.5 3 21.5H4.50009C5.32846 21.5 6.00009 20.8284 6.00009 20L5.99945 18.5H18L17.9999 19.9999C17.9999 20.8284 18.6715 21.5 19.4999 21.5H21C21.8285 21.5 22.5 20.8284 22.5 20V18.5001L22.4995 18.5H22.5C23.3284 18.5 24 17.8284 24 17V11C24 9.76889 23.2538 8.71118 22.191 8.2493L22.191 8.2493ZM6.36617 3.5H17.6337L18.9838 8H5.01613L6.36616 3.5H6.36617ZM5.99995 14.75C5.17149 14.75 4.49995 14.0784 4.49995 13.25C4.49995 12.4215 5.17149 11.75 5.99995 11.75C6.82841 11.75 7.49995 12.4215 7.49995 13.25C7.49995 14.0784 6.82841 14.75 5.99995 14.75ZM18 14.75C17.1715 14.75 16.5 14.0784 16.5 13.25C16.5 12.4215 17.1715 11.75 18 11.75C18.8284 11.75 19.5 12.4215 19.5 13.25C19.5 14.0784 18.8284 14.75 18 14.75Z" fill="#FB6910"/>
</svg>
