<?xml version="1.0" ?><!DOCTYPE svg  PUBLIC '-//W3C//DTD SVG 1.1//EN'  'http://www.w3.org/Graphics/SVG/1.1/DTD/svg11.dtd'><svg height="512px" style="enable-background:new 0 0 512 512;" version="1.1" viewBox="0 0 512 512" width="512px" xml:space="preserve" xmlns="http://www.w3.org/2000/svg" xmlns:xlink="http://www.w3.org/1999/xlink"><g id="_x37_09_-_eye__x2C__camera_x2C___protection__x2C_"><g><g><path d="M254.249,364.676c-64.499,0.001-112.437-30.997-158.799-60.974c-21.762-14.071-44.265-28.621-67.979-39.505     c-0.042-0.019-0.083-0.038-0.125-0.059c-1.005-0.486-2.016-0.936-3.022-1.385l-0.36-0.16c-2.422-1.081-3.979-3.487-3.974-6.14     s1.573-5.052,3.999-6.123c25.097-11.08,49.1-26.115,72.313-40.656c47.593-29.812,96.806-60.639,160.091-61.396     c0.053,0,0.107,0,0.16,0c63.286,0.758,112.499,31.585,160.092,61.396c23.213,14.541,47.216,29.576,72.313,40.656     c2.434,1.074,4.003,3.485,3.999,6.146c-0.003,2.66-1.578,5.067-4.015,6.136c-1.206,0.528-2.286,1.006-3.294,1.504     c-0.057,0.027-0.114,0.055-0.172,0.081c-23.711,10.883-46.214,25.431-67.977,39.501c-46.897,30.32-95.381,61.673-161.026,60.966     c-0.735,0.008-1.48,0.012-2.21,0.012C254.261,364.676,254.253,364.676,254.249,364.676z M42.42,256.498     c21.086,10.572,40.987,23.44,60.314,35.937c46.784,30.25,90.98,58.824,151.514,58.824c0.708,0.016,1.434-0.004,2.15-0.012     c0.051,0,0.101,0,0.151,0c61.614,0.717,106.324-28.208,153.667-58.816c19.327-12.495,39.228-25.361,60.313-35.933     c-21.182-10.507-41.37-23.153-61.005-35.453c-48.121-30.143-93.569-58.614-153.05-59.35     c-59.479,0.735-104.928,29.207-153.049,59.35C83.791,233.345,63.602,245.991,42.42,256.498z"/></g><g><path d="M256.475,315.507c-32.581,0-59.087-26.484-59.087-59.039c0-32.551,26.506-59.033,59.087-59.033     c32.568,0,59.064,26.482,59.064,59.033C315.539,289.022,289.043,315.507,256.475,315.507z M256.475,210.851     c-25.183,0-45.67,20.464-45.67,45.617c0,25.156,20.488,45.623,45.67,45.623c25.17,0,45.648-20.467,45.648-45.623     C302.123,231.314,281.645,210.851,256.475,210.851z"/></g></g></g><g id="Layer_1"/></svg>